<?xml version="1.0" encoding="utf-8"?>
<!-- Generator: Adobe Illustrator 25.2.1, SVG Export Plug-In . SVG Version: 6.00 Build 0)  -->
<svg version="1.1" id="Layer_1" xmlns="http://www.w3.org/2000/svg" xmlns:xlink="http://www.w3.org/1999/xlink" x="0px" y="0px"
	 viewBox="0 0 406.8 64.4" style="enable-background:new 0 0 406.8 64.4;" xml:space="preserve">
<style type="text/css">
	.st0{fill:#FFFFFF;}
	.st1{fill:#6366F1;}
	.st2{fill:#0081C6;}
</style>
<g id="SvgjsG2041_1_" transform="matrix(1.9870557579925205,0,0,1.9870557579925205,-3.1792890232876285,65.4353351473828)">
	<path class="st1" d="M6.4-31.6c11.1-0.4,9.4,12.4-1.2,10.9v5.4H1.6v-15.9C3-31.5,5-31.6,6.4-31.6z M6.7-28.5c-0.5,0-1,0-1.4,0.1
		v4.6C11.3-22.9,12-28.7,6.7-28.5z M21.3-31.6c6.5-1,10.8,6.6,4.5,9.7c1.5,1.9,2.9,4.3,4,6.6h-4.1c-1.1-2-2.3-4.1-3.7-5.9h-1.8v5.9
		h-3.6v-15.9C18-31.5,19.9-31.6,21.3-31.6z M21.5-28.5c-0.5,0-0.9,0-1.3,0.1v4.4C25.9-23.2,27.1-28.5,21.5-28.5z M35.1-23.4
		c-0.5,6.8,9,6.8,8.6,0C44.1-30.3,34.7-30.2,35.1-23.4z M47.4-23.4c0.6,11.1-16.6,11.1-16,0C30.9-34.5,48-34.5,47.4-23.4z
		 M59.2-20.7c0.6,5.7-6.6,7.1-10.4,4.5l1.2-2.8c2.1,1.4,5.9,1.7,5.6-1.8c0,0,0-10.5,0-10.5h3.6C59.2-31.4,59.2-20.7,59.2-20.7z
		 M62.7-15.3v-16.1h10.9v3h-7.3v3.2h6.4v3h-6.4v3.9h7.8v3C74.1-15.3,62.7-15.3,62.7-15.3z M84.2-15c-14.4-0.6-7.9-22.7,5.2-15.6
		l-1,2.9c-11.4-5.6-11.2,14.2,0.3,8.5l1,2.9C88.1-15.4,86.1-15,84.2-15z M103.8-31.4v3.1H99v13h-3.6v-13h-4.9v-3.1
		C90.5-31.4,103.8-31.4,103.8-31.4z M110.4-31.4c1.6,2.9,3.1,6.5,4.4,9.6c1.3-3.1,2.8-6.7,4.4-9.6h3.3c0.7,5.1,1,10.9,1.3,16.1h-3.5
		c-0.1-3.3-0.2-7.2-0.5-10.7c-1.2,2.7-2.5,5.9-3.7,8.6h-2.5c-1.2-2.7-2.5-5.9-3.7-8.6c-0.3,3.5-0.4,7.4-0.5,10.7h-3.5
		c0.3-5.2,0.6-11,1.3-16.1C107-31.4,110.4-31.4,110.4-31.4z M130.1-23.4c-0.5,6.8,9,6.8,8.6,0C139.1-30.3,129.6-30.2,130.1-23.4z
		 M142.4-23.4c0.6,11.1-16.6,11.1-16,0C125.8-34.5,142.9-34.5,142.4-23.4L142.4-23.4z M156.2-15.3c-2.1-3.7-4.5-7.4-7.2-10.6v10.6
		h-3.6v-16.1h3c2.7,2.7,5.1,6.3,7.3,9.5v-9.5h3.6v16.1H156.2z M172.5-15.3c-1.5-2.4-3.6-5-5.9-6.8v6.8h-3.6v-16.1h3.6v6.1
		c1.8-1.9,3.8-4.2,5.5-6.1h4.3c-2.2,2.6-4.4,5-6.8,7.4c2.8,2.3,5.1,5.4,7.2,8.7H172.5L172.5-15.3z M178.8-15.3v-16.1h10.9v3h-7.3
		v3.2h6.4v3h-6.4v3.9h7.8v3H178.8z M198.8-24.8c1.3-2.2,2.5-4.4,3.5-6.6h4c-1.8,3.5-3.6,6.7-5.7,9.9v6.2H197v-6.1
		c-2.1-3.3-4-6.5-5.8-10h4.2C196.4-29.1,197.6-27,198.8-24.8L198.8-24.8z"/>
</g>
<g id="SvgjsG2042_1_" transform="matrix(0.9422584873139593,0,0,0.9422584873139593,-0.18845275332686143,110.85526862332148)">
	<path class="st2" d="M4.3-56H10l-2.9-7.3L4.3-56z M14.1-50.2h-1.8l-1.7-4.3H3.7L2-50.2H0.2l7-16.9L14.1-50.2z M28.6-50.2H27V-66
		h1.6V-50.2z M61.8-58.1c2.5,0.1,7,0.5,6.8-3.2c0.2-3.8-4.3-3.2-6.8-3.2C61.8-64.5,61.8-58.1,61.8-58.1z M70.3-61.3
		c0.1,4.6-5,5.1-8.5,4.8v6.3h-1.6V-66C63.9-66.2,70.4-66.7,70.3-61.3z M85.1-58c2.5,0.1,7,0.5,6.8-3.3c0.2-3.7-4.3-3.2-6.8-3.2V-58
		L85.1-58z M93.5-61.3c0.1,2.6-2.1,4.7-4.6,4.8l4.9,6.3h-2.2l-4.6-6.3h-1.9v6.3h-1.6V-66C87.1-66.2,93.6-66.6,93.5-61.3L93.5-61.3z
		 M120.9-58.2c0.2-8.4-13.2-8.4-13,0C107.7-49.7,121.1-49.7,120.9-58.2z M122.5-58.2c0.2,10.5-16.4,10.6-16.2,0
		C106.1-68.7,122.7-68.7,122.5-58.2z M150.8-50.2l-2.5-11.3l-4.7,12.2l-4.8-12.2l-2.4,11.3h-1.7l3.7-16.9l5.2,13.5l5.2-13.5
		l3.7,16.9H150.8z M167-58.1c2.5,0.1,7,0.5,6.8-3.2c0.2-3.8-4.3-3.2-6.8-3.2C167-64.5,167-58.1,167-58.1z M175.5-61.3
		c0.1,4.6-5,5.1-8.5,4.8v6.3h-1.6V-66C169.1-66.2,175.6-66.7,175.5-61.3z M187.3-64.6v-1.5c2.7,0,6.6,0,9.3,0v1.5h-3.8v14.3h-1.6
		v-14.3C191.1-64.6,187.3-64.6,187.3-64.6z M241.5-50.2L239-61.5l-4.7,12.2l-4.8-12.2l-2.4,11.3h-1.7l3.7-16.9l5.2,13.5l5.2-13.5
		l3.7,16.9H241.5z M258.6-56h5.8l-2.9-7.3L258.6-56z M268.4-50.2h-1.8l-1.7-4.3H258l-1.7,4.3h-1.8l7-16.9L268.4-50.2z M293.6-58.1
		c0.2,6.7-6.8,8.6-12.3,7.9V-66C286.8-66.8,293.8-64.8,293.6-58.1z M292-58.1c0.1-4.9-4.8-6.9-9.1-6.3v12.6
		C287.2-51.3,292.2-53.2,292-58.1z M316.7-50.2h-9.4V-66h9.4v1.5h-7.8v5.6h7.5v1.5h-7.5v5.6h7.8V-50.2z M357.7-50.2h-9.4V-66h9.4
		v1.5h-7.8v5.6h7.5v1.5h-7.5v5.6h7.8V-50.2z M374.7-56h5.8l-2.9-7.3L374.7-56z M384.5-50.2h-1.8l-1.7-4.3h-6.9l-1.7,4.3h-1.8l7-16.9
		L384.5-50.2z M401.1-57.7c-12.8-3.4,2.8-14.2,5.9-5.1h-1.8c-0.3-2.8-7.5-2.9-7.3,0.6c0.5,4.5,10.1,2.2,9.8,7.7
		c0.2,6.2-11.4,6-11.9,0.6h1.9C400.6-47,412.7-55.6,401.1-57.7L401.1-57.7z M426-57.7v7.4h-1.6v-7.4l-6-8.4h2.1l4.7,6.8l4.7-6.8h2.1
		L426-57.7z"/>
</g>
</svg>
