<?xml version="1.0" encoding="utf-8"?>
<!-- Generator: Adobe Illustrator 25.2.1, SVG Export Plug-In . SVG Version: 6.00 Build 0)  -->
<svg version="1.1" id="Layer_1" xmlns="http://www.w3.org/2000/svg" xmlns:xlink="http://www.w3.org/1999/xlink" x="0px" y="0px"
	 viewBox="0 0 71 65.8" style="enable-background:new 0 0 71 65.8;" xml:space="preserve">
<style type="text/css">
	.st0{fill:#FFFFFF;}
	.st1{fill:#6366F1;}
	.st2{fill:#0081C6;}
</style>
<rect x="0.1" y="0" class="st0" width="71" height="65.8"/>
<g id="SvgjsG2558" transform="matrix(1.0855369350021467,0,0,1.0855369350021467,139.5087262091831,-1.5999344120325876)">
	<g>
		<g>
			<path class="st1" d="M-78.6,16.4c-11.6-18-39.5-6.7-35.8,14.2l-3.9,7.1c-0.1,0.2-0.2,0.5-0.1,0.6c0.1,0.2,0.2,0.4,0.5,0.5l5.1,2
				v5.7c0,2.2,1.7,3.9,3.9,3.9h4.4v5c0,0.5,0.3,0.8,0.8,0.8c0.5,0,0.8-0.3,0.8-0.8v-5.8c0-0.5-0.3-0.8-0.8-0.8h-5.1
				c-1.3,0-2.3-1-2.3-2.3v-2.3h4.3c0.3,0.9,1.2,1.6,2.2,1.6c1.3,0,2.4-1.1,2.4-2.4c0-1.3-1.1-2.4-2.4-2.4c-1,0-1.9,0.7-2.2,1.6h-4.3
				v-2.4c0-0.3-0.2-0.6-0.5-0.7l-4.8-1.8l3.4-6.2c0.2-0.2,0.3-0.5,0.2-0.7c-0.5-2.5-0.5-5.2,0.2-7.7h5.5l2.7,4.9
				c-0.4,0.4-0.6,1-0.6,1.5c0,1.3,1.1,2.4,2.4,2.4c1.3,0,2.4-1.1,2.4-2.4s-1.1-2.4-2.4-2.4c-0.2,0-0.3,0-0.4,0.1l-2.9-5.3
				c-0.2-0.2-0.4-0.4-0.7-0.4h-5.6c0.5-1.4,1.1-2.8,1.9-4h4.6l7.6,4.9c0,0.2-0.1,0.3-0.1,0.4c0,1.3,1.1,2.4,2.4,2.4s2.4-1.1,2.4-2.4
				s-1.1-2.4-2.4-2.4c-0.6,0-1.2,0.2-1.5,0.6L-105,16c-0.2-0.1-0.2-0.2-0.4-0.2h-3.7c6.6-8.2,18.3-9,25.7-2.6l-1.8,2.5h-3.2
				c-0.3-0.9-1.2-1.6-2.2-1.6c-1.3,0-2.4,1.1-2.4,2.4s1.1,2.4,2.4,2.4c1,0,1.9-0.7,2.2-1.6h3.6c0.2,0,0.5-0.1,0.6-0.3l2-2.6
				c5.8,5.9,7.2,14.7,2.8,22l-2.9-2.5l2.4-1.8c0.2-0.2,0.3-0.4,0.3-0.6v-3.5c0.9-0.3,1.6-1.2,1.6-2.2c0-1.3-1.1-2.4-2.4-2.4
				s-2.4,1.1-2.4,2.4c0,1,0.7,1.9,1.6,2.2V31l-2.4,1.8l-1.9-1.7v-7.4c0.9-0.3,1.6-1.2,1.6-2.2c0-1.3-1.1-2.4-2.4-2.4
				s-2.4,1.1-2.4,2.4c0,1,0.7,1.9,1.6,2.2v7.8c0,0.2,0.1,0.5,0.2,0.6l6.4,5.6c-1.5,2-3,3.6-5.5,5.1c-0.2,0.2-0.4,0.4-0.4,0.7v11.9
				c0,0.5,0.3,0.8,0.8,0.8c0.5,0,0.8-0.3,0.8-0.8V43.8C-76,38.6-72,26.5-78.6,16.4z M-104.6,42.5c0.5,0,0.8,0.4,0.8,0.8
				c0,0.5-0.4,0.8-0.8,0.8c-0.5,0-0.8-0.4-0.8-0.8C-105.4,42.9-105,42.5-104.6,42.5z M-102.6,28.6c0.5,0,0.8,0.4,0.8,0.8
				c0,0.5-0.4,0.8-0.8,0.8c-0.5,0-0.8-0.4-0.8-0.8C-103.5,28.9-103.1,28.6-102.6,28.6z M-95.6,21.8c0.5,0,0.8,0.4,0.8,0.8
				c0,0.5-0.4,0.8-0.8,0.8c-0.5,0-0.8-0.4-0.8-0.8C-96.5,22.1-96.1,21.8-95.6,21.8z M-90.7,17.2c-0.5,0-0.8-0.4-0.8-0.8
				c0-0.5,0.4-0.8,0.8-0.8c0.5,0,0.8,0.4,0.8,0.8C-89.8,16.8-90.2,17.2-90.7,17.2z M-81.2,25.7c0-0.5,0.4-0.8,0.8-0.8
				s0.8,0.4,0.8,0.8c0,0.5-0.4,0.8-0.8,0.8S-81.2,26.2-81.2,25.7z M-86.1,22.2c-0.5,0-0.8-0.4-0.8-0.8c0-0.5,0.4-0.8,0.8-0.8
				s0.8,0.4,0.8,0.8C-85.4,21.8-85.8,22.2-86.1,22.2z"/>
		</g>
		<g>
			<path class="st1" d="M-90.2,33c-0.9,0.2-1.7,0.9-1.8,1.8c-0.2,1.2,0.5,2.3,1.5,2.7v6.1l-3.1,3c-0.2,0.2-0.2,0.3-0.2,0.5v7.7
				c0,0.5,0.3,0.8,0.8,0.8s0.8-0.3,0.8-0.8v-7.4l3.1-3c0.2-0.2,0.2-0.3,0.2-0.5v-6.4c0.9-0.3,1.6-1.2,1.6-2.2
				C-87.4,33.9-88.7,32.8-90.2,33z M-89.8,36.2c-0.5,0-0.8-0.4-0.8-0.8s0.4-0.8,0.8-0.8s0.8,0.4,0.8,0.8
				C-88.9,35.8-89.3,36.2-89.8,36.2z"/>
		</g>
		<g>
			<path class="st1" d="M-93.7,32c1.1-0.4,1.8-1.5,1.5-2.7c-0.2-0.9-0.9-1.7-1.8-1.8c-1.5-0.3-2.9,0.8-2.9,2.3c0,1,0.7,1.9,1.6,2.2
				v4.6l-4.5,6.1c-0.1,0.2-0.2,0.3-0.2,0.5v12c0,0.5,0.3,0.8,0.8,0.8c0.5,0,0.8-0.3,0.8-0.8V43.4l4.5-6.1c0.1-0.2,0.2-0.3,0.2-0.5
				C-93.7,36.9-93.7,32-93.7,32z M-94.5,30.6c-0.5,0-0.8-0.4-0.8-0.8c0-0.5,0.4-0.8,0.8-0.8s0.8,0.4,0.8,0.8
				C-93.6,30.2-94,30.6-94.5,30.6z"/>
		</g>
	</g>
</g>
</svg>
