<?xml version="1.0" encoding="utf-8"?>
<!-- Generator: Adobe Illustrator 25.2.1, SVG Export Plug-In . SVG Version: 6.00 Build 0)  -->
<svg version="1.1" id="Layer_1" xmlns="http://www.w3.org/2000/svg" xmlns:xlink="http://www.w3.org/1999/xlink" x="0px" y="0px"
	 viewBox="0 0 71 65.8" style="enable-background:new 0 0 71 65.8;" xml:space="preserve">
<style type="text/css">
	.st0{fill:#FFFFFF;}
	.st1{fill:#6366F1;}
	.st2{fill:#0081C6;}
</style>
<g id="SvgjsG2558_1_" transform="matrix(1.0855369350021467,0,0,1.0855369350021467,139.5087262091831,-1.5999344120325876)">
	<g>
		<g>
			<path class="st1" d="M-74,13.3c-13.9-21.5-47.3-8-42.8,17l-4.6,8.5c-0.1,0.3-0.2,0.6-0.1,0.7c0.1,0.3,0.3,0.5,0.6,0.6l6.1,2.4
				v6.8c0,2.6,2,4.6,4.6,4.6h5.3v6c0,0.6,0.4,0.9,0.9,0.9s0.9-0.4,0.9-0.9V53c0-0.6-0.4-0.9-0.9-0.9h-6.1c-1.6,0-2.8-1.2-2.8-2.8
				v-2.8h5.2c0.4,1.1,1.4,1.9,2.7,1.9c1.6,0,2.9-1.3,2.9-2.9c0-1.6-1.3-2.9-2.9-2.9c-1.2,0-2.3,0.8-2.7,1.9h-5.2v-2.9
				c0-0.4-0.3-0.7-0.6-0.8l-5.7-2.2l4.1-7.5c0.3-0.2,0.4-0.6,0.3-0.8c-0.6-3-0.6-6.2,0.2-9.2h6.6l3.2,5.9c-0.5,0.5-0.7,1.2-0.7,1.8
				c0,1.6,1.3,2.9,2.9,2.9c1.6,0,2.9-1.3,2.9-2.9s-1.3-2.9-2.9-2.9c-0.2,0-0.4,0-0.5,0.1l-3.5-6.4c-0.2-0.3-0.5-0.5-0.8-0.5h-6.7
				c0.6-1.7,1.3-3.3,2.3-4.8h5.5l9.1,5.8c0,0.2-0.1,0.4-0.1,0.5c0,1.6,1.3,2.9,2.9,2.9s2.9-1.3,2.9-2.9s-1.3-2.9-2.9-2.9
				c-0.7,0-1.4,0.3-1.8,0.7l-9.3-5.9c-0.2-0.1-0.3-0.2-0.5-0.2h-4.4c7.8-9.8,21.9-10.8,30.8-3.1l-2.2,3h-3.9
				c-0.4-1.1-1.5-1.9-2.7-1.9c-1.6,0-2.9,1.3-2.9,2.9s1.3,2.9,2.9,2.9c1.2,0,2.3-0.8,2.7-1.9h4.3c0.3,0,0.6-0.1,0.7-0.4l2.4-3.1
				c6.9,7,8.6,17.6,3.3,26.4l-3.4-3l2.9-2.1c0.3-0.2,0.4-0.5,0.4-0.7v-4.2c1.1-0.4,1.9-1.5,1.9-2.7c0-1.6-1.3-2.9-2.9-2.9
				s-2.9,1.3-2.9,2.9c0,1.2,0.8,2.3,1.9,2.7v3.7l-2.9,2.1l-2.3-2v-8.9c1.1-0.4,1.9-1.5,1.9-2.7c0-1.6-1.3-2.9-2.9-2.9
				s-2.9,1.3-2.9,2.9c0,1.2,0.8,2.3,1.9,2.7v9.3c0,0.3,0.1,0.6,0.3,0.7l7.7,6.7c-1.8,2.4-3.6,4.3-6.6,6.1c-0.3,0.2-0.5,0.5-0.5,0.8
				V60c0,0.6,0.4,0.9,0.9,0.9c0.6,0,0.9-0.4,0.9-0.9V46.2C-71,39.9-66.1,25.4-74,13.3z M-105.1,44.6c0.6,0,1,0.5,1,1
				c0,0.6-0.5,1-1,1s-1-0.5-1-1C-106.1,45.1-105.7,44.6-105.1,44.6z M-102.8,28c0.6,0,1,0.5,1,1s-0.5,1-1,1c-0.6,0-1-0.5-1-1
				C-103.8,28.4-103.4,28-102.8,28z M-94.4,19.8c0.6,0,1,0.5,1,1s-0.5,1-1,1s-1-0.5-1-1S-95,19.8-94.4,19.8z M-88.5,14.3
				c-0.6,0-1-0.5-1-1s0.5-1,1-1c0.6,0,1,0.5,1,1S-87.9,14.3-88.5,14.3z M-77.2,24.5c0-0.6,0.5-1,1-1c0.6,0,1,0.5,1,1s-0.5,1-1,1
				C-76.7,25.5-77.2,25-77.2,24.5z M-83.1,20.3c-0.6,0-1-0.5-1-1s0.5-1,1-1s1,0.5,1,1C-82.1,19.9-82.6,20.3-83.1,20.3z"/>
		</g>
		<g>
			<path class="st1" d="M-87.9,33.3c-1.1,0.2-2,1.1-2.2,2.2c-0.3,1.5,0.6,2.8,1.8,3.2V46l-3.7,3.6c-0.2,0.2-0.3,0.4-0.3,0.6v9.2
				c0,0.6,0.4,0.9,0.9,0.9c0.6,0,0.9-0.4,0.9-0.9v-8.9l3.7-3.6c0.2-0.2,0.3-0.4,0.3-0.6v-7.7c1.1-0.4,1.9-1.5,1.9-2.7
				C-84.5,34.3-86.1,33-87.9,33.3z M-87.4,37c-0.6,0-1-0.5-1-1c0-0.6,0.5-1,1-1s1,0.5,1,1C-86.4,36.6-86.8,37-87.4,37z"/>
		</g>
		<g>
			<path class="st1" d="M-92.1,32.1c1.3-0.5,2.1-1.8,1.8-3.2c-0.2-1.1-1.1-2-2.2-2.2c-1.8-0.4-3.4,1-3.4,2.8c0,1.2,0.8,2.3,1.9,2.7
				v5.5l-5.4,7.3c-0.1,0.2-0.2,0.4-0.2,0.6v14.4c0,0.6,0.4,0.9,0.9,0.9s0.9-0.4,0.9-0.9V45.7l5.4-7.3c0.1-0.2,0.2-0.4,0.2-0.6
				C-92.1,37.9-92.1,32.1-92.1,32.1z M-93,30.4c-0.6,0-1-0.5-1-1s0.5-1,1-1c0.6,0,1,0.5,1,1S-92.5,30.4-93,30.4z"/>
		</g>
	</g>
</g>
</svg>
