<svg width="406.79999999999995" height="156.27424753834885" viewBox="0 0 350 134.45424444056565" class="css-1j8o68f"><defs id="SvgjsDefs2648"></defs><g id="SvgjsG2649" featurekey="JQyOZB-0" transform="matrix(0.6419563149011313,0,0,0.6419563149011313,143.3071611437306,-1.9258689447033936)" fill="#0081c6"><path xmlns="http://www.w3.org/2000/svg" display="none" d="M62.653,97.752H37.887l-6.651-12.998V61.933L19.721,50.247V25.799l4.909-9.368H13.742V0.103l15.239,7.663  v5.382l42.778-0.095V7.663L87,0v16.33H76.108l4.945,9.471v24.458L69.268,61.944v22.807L62.653,97.752z M39.894,94.473h20.747  l4.312-8.475H35.558L39.894,94.473z M34.517,82.718h31.47V68.172l-2.67,5.307l-2.929-1.475l4.578-9.103h-8.237l-6.344,6.44  l-6.307-6.44h-8.49l4.756,9.079l-2.905,1.521l-2.921-5.575V82.718z M34.517,59.623h10.94l4.936,5.038l4.963-5.038h10.631V24.562  h10.722l-4.299-8.231l-44.076,0.1l-4.256,8.122l10.439-0.031V59.623z M69.268,39.394v17.934l8.507-8.437v-9.497H69.268z   M23.002,48.902l8.234,8.356v-17.87l-8.234-0.023V48.902z M69.268,36.113h8.507v-8.271h-8.507V36.113z M23.002,36.085l8.234,0.024  v-8.295l-8.234,0.025V36.085z M17.022,13.152h8.679V9.787l-8.679-4.363V13.152z M75.041,13.049h8.679V5.321l-8.679,4.364V13.049z"></path><path xmlns="http://www.w3.org/2000/svg" display="none" d="M67.344,98.334H55.887v-3.312h3.326l-5.066-15.948l3.862-11.865l-8.113,8.208l-7.747-7.655l3.75,11.317  l-5.283,15.943h3.538v3.312H32.489v-3.312h4.637l5.283-15.943l-5.45-16.445l-0.121-0.118H36.63V62.31l-5.797-5.729V43.218  l5.797-6.104V13.868L50.339,0l12.794,13.902v23.155L69,42.991v13.095l-5.81,5.907l-5.564,17.092l5.063,15.937h4.654V98.334z   M39.943,60.925l9.924,9.808l10.08-10.199l-0.079-6.75l-9.53,10.061L39.943,53.627V60.925z M39.943,48.982l10.311,10.134l9.567-10.1  V27.729H39.943V48.982z M34.146,55.196l2.485,2.455V41.924l-2.485,2.616V55.196z M63.134,49.667l0.088,7.554l2.466-2.495V44.353  l-2.554-2.583V49.667z M45.486,24.416h8.691l-4.302-2.447L45.486,24.416z M56.146,21.724l3.675,2.089v-2.089H56.146z M39.943,21.724  v1.99l3.568-1.99H39.943z M49.89,18.167l4.34,2.468V9.12l-3.978-4.32L45.81,9.294v11.147L49.89,18.167z M57.543,18.411h2.278v-3.217  l-2.278-2.474V18.411z M39.943,18.411h2.554v-5.766l-2.554,2.584V18.411z"></path><path xmlns="http://www.w3.org/2000/svg" display="none" d="M79.359,98H56.263v-3.279h23.097V98z M44.646,98H21.138v-3.279h23.508V98z M68.28,86.246h-35.85  L19.498,73.683V49.139L31.45,37.324l-0.205-22.943L43.955,1.375h13.006l12.496,13.014l-0.206,22.944L81,49.147v24.526L68.28,86.246z   M33.762,82.967h33.169l4.928-4.87v-33.49l-4.693-4.72l-16.814,5.725l-16.824-5.728l-4.788,4.731v33.473L33.762,82.967z   M22.778,72.297l2.682,2.604V47.857l-2.682,2.651V72.297z M75.139,47.906v26.949l2.581-2.549V50.5L75.139,47.906z M36.784,37.527  l13.567,4.619l13.603-4.632l-13.441-9.087L36.784,37.527z M34.65,28.298l0.059,6.669l10.061-6.669H34.65z M56.179,28.298  l9.814,6.636l0.059-6.636H56.179z M36.787,13.403h9.498v13.89l4.246-2.813l4.092,2.766V13.403h9.34l-8.4-8.748H45.335L36.787,13.403  z M57.902,25.018h8.179l0.075-8.335h-8.254V25.018z M34.621,25.018h8.384v-8.335h-8.459L34.621,25.018z"></path><path xmlns="http://www.w3.org/2000/svg" display="none" d="M68.306,98H32.129L7.786,73.731V25.512l12.242-13.139h25.149l5.202,5.504l5.081-5.504h24.724L93,25.489  v48.25L68.306,98z M34.467,94.69h31.506v-3.157l-15.586-5.3l-15.92,5.307V94.69z M69.283,91.039V92.4l20.407-20.05V26.837  L78.791,15.683H56.909l-6.502,7.042l-6.656-7.042H21.468L11.095,26.814v45.543l20.063,20.002v-1.298l-6.205-5.86V59.996l9.423-3.154  H19.093V41.949h15.375v14.862l6.988-2.34l-0.951-0.939h19.776l-0.95,0.939l6.54,2.189V41.949h15.374v14.893H66.41l8.803,2.946V85.18  L69.283,91.039z M28.262,83.774l4.966,4.69l15.51-5.169V61.67l-4.645-4.591l-15.831,5.298V83.774z M52.048,83.303l15.146,5.149  l4.71-4.655V62.169l-15.211-5.09l-4.645,4.591V83.303z M48.561,56.842l1.833,1.81l1.832-1.81H48.561z M69.181,53.532h8.755v-8.274  h-8.755V53.532z M22.402,53.532h8.756v-8.274h-8.756V53.532z M90.162,15.461L78.304,3.326l2.367-2.312l11.858,12.135L90.162,15.461z   M10.639,15.169l-2.396-2.283L19.55,1.028l2.395,2.284L10.639,15.169z"></path><path xmlns="http://www.w3.org/2000/svg" d="M70.034,97.649H29.229l-14.072-27.5v-12.53L2.637,44.563v-28.68h14.01L49.825,3l32.561,12.884H97v28.669L83.869,58.523  v11.619L70.034,97.649z M32.183,93.985h34.89v-9.467h-34.89V93.985z M18.822,69.266l9.696,18.948V57.323l-6.643-13.058v-14.41  l14.532-14.364l13.217,6.589l13.133-6.586l14.774,14.352v14.428l-6.795,13.057v30.766l9.467-18.823V18.961L49.812,6.937  L18.822,18.97V69.266z M32.183,80.854h34.89V58.202l-17.556-5.875l-17.334,5.869V80.854z M49.51,48.46l18.493,6.188l5.864-11.271  V31.395L62.073,19.938l-12.443,6.24L37.119,19.94L25.541,31.386v12l5.724,11.252L49.51,48.46z M83.869,19.548v33.624l9.467-10.071  V19.548H83.869z M6.301,43.09l8.856,9.234V19.548H6.301V43.09z M41.938,70.985l-6.451-6.644l2.629-2.554l6.451,6.644L41.938,70.985z   M57.568,70.96l-2.674-2.505l6.222-6.643l2.675,2.506L57.568,70.96z M45.085,45.658H28.518v-16.87h16.567V45.658z M32.183,41.994  h9.238v-9.542h-9.238V41.994z M70.737,45.602H54.17V28.731h16.567V45.602z M57.835,41.937h9.237v-9.541h-9.237V41.937z"></path></g><g id="SvgjsG2650" featurekey="SbCDzn-0" transform="matrix(1.9870557579925205,0,0,1.9870557579925205,-3.1792890232876285,69.4353351473828)" fill="#48466d"><path d="M5.76 5.98 q3.1 0 4.76 1.09 t1.66 3.57 q0 2.5 -1.68 3.61 t-4.8 1.11 l-0.98 0 l0 4.64 l-3.12 0 l0 -13.66 q1.02 -0.2 2.16 -0.28 t2 -0.08 z M5.96 8.64 q-0.34 0 -0.67 0.02 t-0.57 0.04 l0 4 l0.98 0 q1.62 0 2.44 -0.44 t0.82 -1.64 q0 -0.58 -0.21 -0.96 t-0.6 -0.61 t-0.95 -0.32 t-1.24 -0.09 z M18.54 5.98 q3.12 0 4.78 1.11 t1.66 3.45 q0 1.46 -0.67 2.37 t-1.93 1.43 q0.42 0.52 0.88 1.19 t0.91 1.4 t0.87 1.52 t0.78 1.55 l-3.5 0 q-0.38 -0.68 -0.77 -1.38 t-0.8 -1.36 t-0.81 -1.25 t-0.8 -1.07 l-1.54 0 l0 5.06 l-3.12 0 l0 -13.66 q1.02 -0.2 2.11 -0.28 t1.95 -0.08 z M18.72 8.64 q-0.34 0 -0.61 0.02 t-0.51 0.04 l0 3.76 l0.88 0 q1.76 0 2.52 -0.44 t0.76 -1.5 q0 -1.02 -0.77 -1.45 t-2.27 -0.43 z M30.439999999999998 13.059999999999999 q0 1.02 0.25 1.84 t0.72 1.41 t1.15 0.91 t1.56 0.32 q0.86 0 1.55 -0.32 t1.16 -0.91 t0.72 -1.41 t0.25 -1.84 t-0.25 -1.85 t-0.72 -1.42 t-1.16 -0.91 t-1.55 -0.32 q-0.88 0 -1.56 0.33 t-1.15 0.92 t-0.72 1.42 t-0.25 1.83 z M41.019999999999996 13.059999999999999 q0 1.78 -0.53 3.13 t-1.45 2.26 t-2.19 1.37 t-2.73 0.46 q-1.42 0 -2.68 -0.46 t-2.2 -1.37 t-1.48 -2.26 t-0.54 -3.13 t0.56 -3.13 t1.51 -2.27 t2.2 -1.38 t2.63 -0.46 q1.42 0 2.68 0.46 t2.2 1.38 t1.48 2.27 t0.54 3.13 z M51.199999999999996 15.34 q0 1.02 -0.23 1.92 t-0.8 1.57 t-1.54 1.06 t-2.45 0.39 q-1.36 0 -2.34 -0.33 t-1.62 -0.77 l1.04 -2.42 q0.58 0.34 1.24 0.6 t1.44 0.26 q1.14 0 1.64 -0.56 t0.5 -1.88 l0 -9.04 l3.12 0 l0 9.2 z M54.199999999999996 20 l0 -13.86 l9.36 0 l0 2.62 l-6.24 0 l0 2.72 l5.54 0 l0 2.56 l-5.54 0 l0 3.34 l6.7 0 l0 2.62 l-9.82 0 z M72.64 20.28 q-3.38 0 -5.15 -1.88 t-1.77 -5.34 q0 -1.72 0.54 -3.07 t1.48 -2.28 t2.24 -1.41 t2.82 -0.48 q0.88 0 1.6 0.13 t1.26 0.3 t0.9 0.35 t0.52 0.28 l-0.9 2.52 q-0.64 -0.34 -1.49 -0.58 t-1.93 -0.24 q-0.72 0 -1.41 0.24 t-1.22 0.77 t-0.85 1.37 t-0.32 2.04 q0 0.96 0.21 1.79 t0.68 1.43 t1.23 0.95 t1.84 0.35 q0.68 0 1.22 -0.08 t0.96 -0.19 t0.74 -0.25 t0.58 -0.26 l0.86 2.5 q-0.66 0.4 -1.86 0.72 t-2.78 0.32 z M89.56 6.140000000000001 l0 2.66 l-4.18 0 l0 11.2 l-3.12 0 l0 -11.2 l-4.18 0 l0 -2.66 l11.48 0 z M95.24000000000001 6.140000000000001 q0.36 0.66 0.83 1.63 t0.98 2.1 t1.01 2.31 t0.94 2.22 q0.44 -1.04 0.94 -2.22 t1.01 -2.31 t0.98 -2.1 t0.83 -1.63 l2.84 0 q0.2 1.38 0.37 3.09 t0.3 3.56 t0.24 3.71 t0.19 3.5 l-3.04 0 q-0.06 -2.02 -0.16 -4.4 t-0.3 -4.8 q-0.36 0.84 -0.8 1.86 t-0.87 2.04 t-0.83 1.95 t-0.68 1.59 l-2.18 0 q-0.28 -0.66 -0.68 -1.59 t-0.83 -1.95 t-0.87 -2.04 t-0.8 -1.86 q-0.2 2.42 -0.3 4.8 t-0.16 4.4 l-3.04 0 q0.08 -1.64 0.19 -3.5 t0.24 -3.71 t0.3 -3.56 t0.37 -3.09 l2.98 0 z M112.12 13.059999999999999 q0 1.02 0.25 1.84 t0.72 1.41 t1.15 0.91 t1.56 0.32 q0.86 0 1.55 -0.32 t1.16 -0.91 t0.72 -1.41 t0.25 -1.84 t-0.25 -1.85 t-0.72 -1.42 t-1.16 -0.91 t-1.55 -0.32 q-0.88 0 -1.56 0.33 t-1.15 0.92 t-0.72 1.42 t-0.25 1.83 z M122.7 13.059999999999999 q0 1.78 -0.53 3.13 t-1.45 2.26 t-2.19 1.37 t-2.73 0.46 q-1.42 0 -2.68 -0.46 t-2.2 -1.37 t-1.48 -2.26 t-0.54 -3.13 t0.56 -3.13 t1.51 -2.27 t2.2 -1.38 t2.63 -0.46 q1.42 0 2.68 0.46 t2.2 1.38 t1.48 2.27 t0.54 3.13 z M134.6 20 q-1.34 -2.38 -2.9 -4.7 t-3.32 -4.38 l0 9.08 l-3.08 0 l0 -13.86 l2.54 0 q0.66 0.66 1.46 1.62 t1.63 2.05 t1.65 2.26 t1.54 2.25 l0 -8.18 l3.1 0 l0 13.86 l-2.62 0 z M148.6 20 q-0.42 -0.68 -0.99 -1.47 t-1.24 -1.58 t-1.39 -1.52 t-1.44 -1.29 l0 5.86 l-3.12 0 l0 -13.86 l3.12 0 l0 5.24 q1.22 -1.28 2.45 -2.67 t2.29 -2.57 l3.7 0 q-1.42 1.68 -2.85 3.24 t-3.01 3.14 q1.66 1.38 3.21 3.28 t2.97 4.2 l-3.7 0 z M154.1 20 l0 -13.86 l9.36 0 l0 2.62 l-6.24 0 l0 2.72 l5.54 0 l0 2.56 l-5.54 0 l0 3.34 l6.7 0 l0 2.62 l-9.82 0 z M171.3 11.84 q0.84 -1.42 1.6 -2.84 t1.4 -2.86 l3.44 0 q-1.14 2.24 -2.36 4.34 t-2.58 4.22 l0 5.3 l-3.12 0 l0 -5.26 q-1.36 -2.12 -2.59 -4.24 t-2.37 -4.36 l3.62 0 q0.64 1.44 1.38 2.86 t1.58 2.84 z"></path></g><g id="SvgjsG2651" featurekey="m0CQaI-0" transform="matrix(0.9422584873139593,0,0,0.9422584873139593,-0.18845275332686143,114.85526862332148)" fill="#0081c6"><path d="M3.7004 15 l4.9479 0 l-2.4684 -6.26 z M12.14 20 l-1.52 0 l-1.459 -3.7 l-5.9755 0 l-1.4655 3.7 l-1.52 0 l5.98 -14.54 z M24.635999999999996 20 l-1.4 0 l0 -13.6 l1.4 0 l0 13.6 z M53.227999999999994 13.2546 l3.16 0 c0.7809 0 1.4276 -0.26334 1.94 -0.79 c0.52 -0.53444 0.78 -1.203 0.78 -2.0058 c0 -0.80278 -0.24666 -1.4575 -0.74 -1.9642 s-1.1533 -0.76 -1.98 -0.76 l-3.16 0 l0 5.52 z M60.507999999999996 10.4946 c0 1.1907 -0.42334 2.1808 -1.27 2.97 c-0.82242 0.76666 -1.8391 1.15 -3.05 1.15 l-2.96 0 l0 5.38 l-1.4 0 l0 -13.6 l4.36 0 c1.203 0 2.2196 0.38 3.05 1.14 c0.84666 0.7749 1.27 1.7616 1.27 2.96 z M73.20400000000001 13.280000000000001 l3.16 0 c0.78806 0 1.4347 -0.26666 1.94 -0.8 c0.52 -0.54888 0.78 -1.2194 0.78 -2.0116 s-0.24666 -1.445 -0.74 -1.9583 s-1.1533 -0.77 -1.98 -0.77 l-3.16 0 l0 5.54 z M80.48400000000001 10.5 c0 1.1907 -0.42334 2.1808 -1.27 2.97 c-0.74118 0.69092 -1.6401 1.0705 -2.6968 1.1388 l4.1868 5.3912 l-1.88 0 l-3.9874 -5.38 l-1.6327 0 l0 5.38 l-1.4 0 l0 -13.6 l4.36 0 c1.2109 0 2.2276 0.38334 3.05 1.15 c0.84666 0.78926 1.27 1.7726 1.27 2.95 z M104.06 13.16 c0 -1.5333 -0.54666 -2.8466 -1.64 -3.94 s-2.4134 -1.64 -3.96 -1.64 c-1.5333 0 -2.8466 0.54666 -3.94 1.64 s-1.64 2.4066 -1.64 3.94 c0 1.5467 0.54666 2.8666 1.64 3.96 s2.4066 1.64 3.94 1.64 c1.5467 0 2.8666 -0.54666 3.96 -1.64 s1.64 -2.4134 1.64 -3.96 z M105.46 13.16 c0 0.96 -0.18334 1.8667 -0.55 2.72 s-0.86666 1.5967 -1.5 2.23 s-1.3767 1.1333 -2.23 1.5 s-1.76 0.55 -2.72 0.55 s-1.8633 -0.18334 -2.71 -0.55 s-1.5867 -0.86666 -2.22 -1.5 s-1.1333 -1.3767 -1.5 -2.23 s-0.55 -1.76 -0.55 -2.72 s0.18334 -1.8667 0.55 -2.72 s0.86666 -1.5933 1.5 -2.22 s1.3733 -1.1233 2.22 -1.49 s1.75 -0.55 2.71 -0.55 s1.8667 0.18334 2.72 0.55 s1.5967 0.86332 2.23 1.49 s1.1333 1.3667 1.5 2.22 s0.55 1.76 0.55 2.72 z M129.796 20 l-2.12 -9.68 l-4.08 10.48 l-4.1 -10.48 l-2.1 9.68 l-1.44 0 l3.18 -14.5 l4.46 11.64 l4.46 -11.64 l3.16 14.5 l-1.42 0 z M143.71200000000002 13.2546 l3.16 0 c0.7809 0 1.4276 -0.26334 1.94 -0.79 c0.52 -0.53444 0.78 -1.203 0.78 -2.0058 c0 -0.80278 -0.24666 -1.4575 -0.74 -1.9642 s-1.1533 -0.76 -1.98 -0.76 l-3.16 0 l0 5.52 z M150.99200000000002 10.4946 c0 1.1907 -0.42334 2.1808 -1.27 2.97 c-0.82242 0.76666 -1.8391 1.15 -3.05 1.15 l-2.96 0 l0 5.38 l-1.4 0 l0 -13.6 l4.36 0 c1.203 0 2.2196 0.38 3.05 1.14 c0.84666 0.7749 1.27 1.7616 1.27 2.96 z M161.18800000000002 7.66 l0 -1.3 l3.3 0 l1.4 0 l3.3 0 l0 1.3 l-3.3 0 l0 12.3 l-1.4 0 l0 -12.3 l-3.3 0 z M207.82 20 l-2.12 -9.68 l-4.08 10.48 l-4.1 -10.48 l-2.1 9.68 l-1.44 0 l3.18 -14.5 l4.46 11.64 l4.46 -11.64 l3.16 14.5 l-1.42 0 z M222.53640000000001 15 l4.9479 0 l-2.4684 -6.26 z M230.976 20 l-1.52 0 l-1.459 -3.7 l-5.9755 0 l-1.4655 3.7 l-1.52 0 l5.98 -14.54 z M252.632 13.2 c0 0.98666 -0.18334 1.8967 -0.55 2.73 s-0.86332 1.55 -1.49 2.15 s-1.3667 1.07 -2.22 1.41 s-1.7667 0.51 -2.74 0.51 l-3.56 0 l0 -13.6 l3.56 0 c0.97334 0 1.8867 0.17 2.74 0.51 s1.5933 0.81 2.22 1.41 s1.1233 1.3167 1.49 2.15 s0.55 1.7433 0.55 2.73 z M251.272 13.2 c0 -1.5509 -0.54666 -2.8442 -1.64 -3.88 c-1.0696 -1.0133 -2.3896 -1.52 -3.96 -1.52 l-2.2 0 l0 10.8 l2.2 0 c1.5704 0 2.8904 -0.50666 3.96 -1.52 c1.0933 -1.0358 1.64 -2.3292 1.64 -3.88 z M272.508 20 l-8.08 0 l0 -13.6 l8.08 0 l0 1.3 l-6.68 0 l0 4.84 l6.48 0 l0 1.32 l-6.48 0 l0 4.84 l6.68 0 l0 1.3 z M307.78 20 l-8.08 0 l0 -13.6 l8.08 0 l0 1.3 l-6.68 0 l0 4.84 l6.48 0 l0 1.32 l-6.48 0 l0 4.84 l6.68 0 l0 1.3 z M322.3764 15 l4.9479 0 l-2.4684 -6.26 z M330.816 20 l-1.52 0 l-1.459 -3.7 l-5.9755 0 l-1.4655 3.7 l-1.52 0 l5.98 -14.54 z M345.08979999999997 13.5852 c-2.774 -0.64318 -4.1606 -1.833 -4.1592 -3.5694 c0.0009375 -1.2772 0.44806 -2.2326 1.3414 -2.8658 s1.9433 -0.95 3.15 -0.95 c2.644 0 4.2146 0.98666 4.7116 2.96 l-1.5143 0 c-0.27142 -1.1733 -1.3372 -1.76 -3.1972 -1.76 c-1.3133 0 -2.2308 0.38954 -2.7526 1.1687 c-0.1982 0.28756 -0.29632 0.65396 -0.29438 1.0992 c-0.0036328 0.83254 0.44954 1.4776 1.3595 1.9351 c0.42812 0.2272 1.3347 0.5202 2.7198 0.87896 s2.39 0.75912 3.0146 1.2011 c0.8687 0.61138 1.304 1.4737 1.306 2.587 c-0.0019531 1.3667 -0.543 2.4006 -1.6232 3.1016 c-0.9065 0.59228 -2.027 0.88844 -3.3618 0.88844 c-3.012 0 -4.758 -1.1467 -5.238 -3.44 l1.6551 0 c0.2566 1.44 1.4513 2.16 3.584 2.16 c1.5206 0 2.5834 -0.42278 3.1882 -1.2683 c0.23506 -0.3278 0.3526 -0.77502 0.3526 -1.3417 s-0.21898 -1.0272 -0.65696 -1.3817 c-0.62872 -0.51292 -1.8238 -0.9806 -3.5852 -1.403 z M366.5079999999999 13.599599999999999 l0 6.4005 l-1.4 0 l0 -6.3971 l-5.16 -7.2028 l1.8 0 l4.06 5.82 l4.06 -5.82 l1.78 0 z"></path></g></svg>